<svg xmlns="http://www.w3.org/2000/svg" xmlns:xlink="http://www.w3.org/1999/xlink" width="158.943" height="92.861" viewBox="0 0 158.943 92.861">
  <defs>
    <linearGradient id="linear-gradient" x1="0.955" y1="0.959" x2="0.034" y2="0.177" gradientUnits="objectBoundingBox">
      <stop offset="0" stop-color="#27366e"/>
      <stop offset="1" stop-color="#73bf43"/>
    </linearGradient>
    <filter id="Path_9261" x="60.277" y="0" width="98.666" height="92.861" filterUnits="userSpaceOnUse">
      <feOffset input="SourceAlpha"/>
      <feGaussianBlur stdDeviation="4" result="blur"/>
      <feFlood flood-color="#27366e" flood-opacity="0.231"/>
      <feComposite operator="in" in2="blur"/>
      <feComposite in="SourceGraphic"/>
    </filter>
  </defs>
  <g id="Group_11846" data-name="Group 11846" transform="translate(0 12)">
    <path id="Path_286" data-name="Path 286" d="M51.767,52.675H24.809C21.6,52.675,19,50.462,19,47.731s2.6-4.943,5.809-4.943v-.516c0-4.54,3.468-8.553,8.559-9.913S44,32.607,47.049,36.331a11.346,11.346,0,0,1,3.774-.637c5.206.074,9.47,3.541,9.795,7.963s-3.4,8.313-8.555,8.938A.683.683,0,0,1,51.767,52.675Zm-26.958-8.74c-2.464,0-4.461,1.7-4.461,3.8s2,3.8,4.461,3.8H51.524a.684.684,0,0,1,.175-.04,8.449,8.449,0,0,0,7.372-5.094,6.679,6.679,0,0,0-2.586-7.775,9.85,9.85,0,0,0-9.415-1.05.743.743,0,0,1-.863-.212c-2.574-3.5-7.558-5.12-12.217-3.98s-7.869,4.769-7.866,8.895a7.951,7.951,0,0,0,.081,1.072.524.524,0,0,1-.191.486.75.75,0,0,1-.571.162,5.185,5.185,0,0,0-.634-.057Z" transform="translate(-19 -28.362)" fill="#47971d"/>
    <path id="Path_285" data-name="Path 285" d="M28.948,22a9.858,9.858,0,0,0-8.365,4.68A5.462,5.462,0,0,0,18.62,26.3a5.557,5.557,0,0,0-5.42,4.478A7.736,7.736,0,0,0,14.746,46.1H36.264a7.727,7.727,0,0,0,2.528-15.036A9.893,9.893,0,0,0,28.948,22Zm0,.861a9.027,9.027,0,0,1,9.024,8.5.43.43,0,0,0,.309.39,6.9,6.9,0,0,1-2.017,13.489H14.746A6.888,6.888,0,0,1,13.59,31.562a.43.43,0,0,0,.363-.363,4.714,4.714,0,0,1,6.6-3.618.43.43,0,0,0,.551-.175A9.023,9.023,0,0,1,28.948,22.861Z" transform="translate(16.574 16.547)" fill="#47971d"/>
    <g id="Send" transform="translate(146.943 43.503) rotate(155)">
      <g transform="matrix(-0.91, -0.42, 0.42, -0.91, 109.72, 112.4)" filter="url(#Path_9261)">
        <path id="Path_9261-2" data-name="Path 9261" d="M59.726,47.69a1,1,0,0,1-1.064.25l-58-21a1,1,0,0,1,0-1.882l13.47-4.809L18.022.8a1,1,0,0,1,.927-.8H19a.992.992,0,0,1,.679.281c.008,0,13.142,13.029,13.142,13.029l10.892-3.268a1,1,0,0,1,1.21.573l15,36a1,1,0,0,1-.2,1.075Zm-8.939-4.728L14.9,22.1,3.957,26.006ZM19.215,5.034,16.123,20.5,48.9,39.552,23.353,17.761a1.845,1.845,0,0,1-.306-.463Zm1.944-.483,3.5,11.207,5.981-1.794Zm22.267,7.666L26.048,17.43,56.377,43.3Z" transform="translate(146.94 55.5) rotate(155)" fill="url(#linear-gradient)"/>
      </g>
    </g>
  </g>
</svg>
