<svg xmlns="http://www.w3.org/2000/svg" width="25.714" height="33.345" viewBox="0 0 25.714 33.345">
  <g id="noun_Business_2913608" transform="translate(-14.129 -24.001)">
    <path id="Path_9212" data-name="Path 9212" d="M235.938,134.813h-.017a.763.763,0,0,1-.754-.762.431.431,0,1,0-.862,0,1.627,1.627,0,0,0,1.193,1.566v.337a.431.431,0,1,0,.862,0v-.337a1.624,1.624,0,0,0-.431-3.19.762.762,0,1,1,.762-.762.431.431,0,0,0,.862,0,1.627,1.627,0,0,0-1.193-1.566v-.283a.431.431,0,0,0-.862,0v.283a1.624,1.624,0,0,0,.431,3.19.762.762,0,0,1,.008,1.524Z" transform="translate(-208.877 -97.811)" fill="#27366e"/>
    <path id="Path_9213" data-name="Path 9213" d="M100,129.63a1.357,1.357,0,0,0,1.356,1.356h8.155a1.357,1.357,0,0,0,1.355-1.356v-.652a1.35,1.35,0,0,0-.372-.93,1.349,1.349,0,0,0,.372-.93v-.652a1.349,1.349,0,0,0-.3-.854,1.351,1.351,0,0,0,.437-.994v-.652a1.351,1.351,0,0,0-.464-1.019,1.673,1.673,0,0,0,.234-.311h.007l.133.012.113.009c.085,0,.17.007.256.007a4.672,4.672,0,0,0,.509-.029,1.668,1.668,0,0,0,.218.294,1.351,1.351,0,0,0-.448,1.005v.652a1.349,1.349,0,0,0,.367.924,1.349,1.349,0,0,0-.367.924v.652a1.351,1.351,0,0,0,.386.946,1.351,1.351,0,0,0-.386.946v.652a1.357,1.357,0,0,0,1.356,1.356h8.155a1.357,1.357,0,0,0,1.356-1.356v-.652a1.351,1.351,0,0,0-.386-.946,1.35,1.35,0,0,0,.386-.946v-.652a1.349,1.349,0,0,0-.367-.924,1.349,1.349,0,0,0,.367-.924v-.652a1.351,1.351,0,0,0-.45-1.006,1.678,1.678,0,0,0-.112-2.4,1.681,1.681,0,0,0-1.12-2.935h-4.831a4.648,4.648,0,0,0-8.248-2.507h-5.848a1.681,1.681,0,0,0-1.12,2.935,1.679,1.679,0,0,0,0,2.507,1.678,1.678,0,0,0-.1,2.414,1.352,1.352,0,0,0-.466,1.02v.652a1.349,1.349,0,0,0,.3.854,1.351,1.351,0,0,0-.437.994v.652a1.349,1.349,0,0,0,.372.93,1.349,1.349,0,0,0-.372.93Zm10,0a.494.494,0,0,1-.493.493h-8.155a.494.494,0,0,1-.493-.493v-.652a.494.494,0,0,1,.493-.493h8.155a.494.494,0,0,1,.493.493Zm-9.141-3.165a.494.494,0,0,1,.493-.493h8.155a.494.494,0,0,1,.493.493v.652a.494.494,0,0,1-.493.493h-8.155a.494.494,0,0,1-.493-.493Zm5.786-8.006,0,.047a4.592,4.592,0,0,0,.466,1.589h-5.3a.819.819,0,1,1,0-1.639h4.833Zm3.173,3.971a.818.818,0,0,1-.5.172h-7.5a.819.819,0,0,1,0-1.639h5.871a4.609,4.609,0,0,0,2.136,1.466ZM101,123.964a.494.494,0,0,1,.493-.493h8.155a.494.494,0,0,1,.493.493v.652a.494.494,0,0,1-.493.493h-8.155a.494.494,0,0,1-.493-.493Zm13.873-3h5.872a.819.819,0,0,1,.2,1.613h-7.906a.814.814,0,0,1-.3-.149A4.666,4.666,0,0,0,114.868,120.964Zm-1.631,2.5h7.5a1.684,1.684,0,0,0,.29-.026h.036a.494.494,0,0,1,.493.493v.652a.494.494,0,0,1-.493.493h-8.155a.494.494,0,0,1-.493-.493v-.652a.494.494,0,0,1,.493-.493h.035a1.7,1.7,0,0,0,.291.025Zm8.322,2.969v.652a.494.494,0,0,1-.493.493h-8.155a.494.494,0,0,1-.493-.493v-.652a.494.494,0,0,1,.493-.493h8.155A.494.494,0,0,1,121.56,126.434Zm0,3.2a.494.494,0,0,1-.493.493h-8.155a.494.494,0,0,1-.493-.493v-.652a.494.494,0,0,1,.493-.493h8.155a.494.494,0,0,1,.493.493Zm0-10.353a.82.82,0,0,1-.819.819h-5.307a4.614,4.614,0,0,0,.474-1.639h4.833a.82.82,0,0,1,.819.819Zm-10.282-5.055a3.789,3.789,0,1,1,0,7.578c-.07,0-.139,0-.208-.006l-.092-.007-.109-.009-.125-.016-.065-.009c-.052-.008-.1-.017-.154-.028l-.019,0a3.8,3.8,0,0,1-2.995-3.306l0-.037c0-.047-.008-.094-.011-.141,0-.015,0-.03,0-.046,0-.06,0-.119,0-.18A3.794,3.794,0,0,1,111.277,114.222Zm-9.463,1.729h5.294a4.614,4.614,0,0,0-.463,1.639h-4.831a.819.819,0,0,1,0-1.639Z" transform="translate(-84.225 -82.936)" fill="#27366e"/>
    <path id="Path_9214" data-name="Path 9214" d="M102.379,383.485h-21v-2.131a.431.431,0,0,0-.736-.3l-3.416,3.416a.431.431,0,0,0,0,.61l3.416,3.416a.431.431,0,0,0,.736-.3v-2.131h21a.431.431,0,0,0,.431-.431v-1.708A.431.431,0,0,0,102.379,383.485Zm-.431,1.708h-21a.431.431,0,0,0-.431.431v1.521l-2.375-2.375,2.375-2.375v1.521a.431.431,0,0,0,.431.431h21Z" transform="translate(-62.968 -331.272)" fill="#27366e"/>
    <path id="Path_9215" data-name="Path 9215" d="M99.271,24.127a.431.431,0,0,0-.736.3v2.131h-21a.431.431,0,0,0-.431.431V28.7a.431.431,0,0,0,.431.431h21v2.131a.431.431,0,0,0,.736.3l3.416-3.416a.431.431,0,0,0,0-.61Zm.126,6.1V28.7a.431.431,0,0,0-.431-.431h-21v-.846h21a.431.431,0,0,0,.431-.431V25.473l2.375,2.375Z" transform="translate(-62.971 0)" fill="#27366e"/>
  </g>
</svg>
