<svg xmlns="http://www.w3.org/2000/svg" width="25.714" height="23.923" viewBox="0 0 25.714 23.923">
  <path id="user_list" data-name="user list" d="M296.724,202.318h-.016c.011-.194.016-.395.016-.6a10.764,10.764,0,0,0-21.528,0c0,.2.005.4.016.6H275.2a.6.6,0,1,1-1.186-.109c-.007-.166-.01-.33-.01-.49a11.961,11.961,0,0,1,8.956-11.579,5.98,5.98,0,1,1,6.011,0,11.96,11.96,0,0,1,8.953,11.579c0,.162,0,.327-.01.49a.6.6,0,1,1-1.186.108Zm-15.548-17.342a4.784,4.784,0,1,0,4.784-4.784A4.784,4.784,0,0,0,281.176,184.976Zm15.548,8.372a.6.6,0,0,1,0-1.2h2.392a.6.6,0,0,1,0,1.2Zm-3.588-4.784a.6.6,0,0,1,0-1.2h5.98a.6.6,0,1,1,0,1.2Zm1.2-4.784a.6.6,0,1,1,0-1.2h4.784a.6.6,0,0,1,0,1.2Z" transform="translate(-274 -178.991)" fill="#27366e"/>
</svg>
